# xmcd
#
# Track frame offsets:
#	150
#	16397
#	30510
#	44957
#	68140
#	89660
#	108592
#	122667
#	139542
#	157315
#	179890
#	197025
#	217627
#	231755
#	246780
#
# Disc length: 3625 seconds
#
# Revision: 1
# Processed by: cddbd v1.5.2PL0 Copyright (c) Steve Scherf et al.
# Submitted via: audiograbber 1.83.01
#
DISCID=dc0e270f
DTITLE=Tequila Sisters - Out Of The Shadows
DYEAR=1999
DGENRE=Country
TTITLE0=Between Crawling To Meet You And Walking The Line
TTITLE1=Lonesome No More
TTITLE2=Liar
TTITLE3=The Rain
TTITLE4=Slow Motion Heart
TTITLE5=Amarillo
TTITLE6=Just To Say I Love You
TTITLE7=That's Me
TTITLE8=Wilder Horses
TTITLE9=Secrets
TTITLE10=Honky Tonk Piano Lounge
TTITLE11=A Lovers' Waltz
TTITLE12=Over You
TTITLE13=As For Friends
TTITLE14=Out Of The Shadows (parts 1&2)
EXTD=
EXTT0=
EXTT1=
EXTT2=
EXTT3=
EXTT4=
EXTT5=
EXTT6=
EXTT7=
EXTT8=
EXTT9=
EXTT10=
EXTT11=
EXTT12=
EXTT13=
EXTT14=
PLAYORDER=
